<?xml version="1.0" encoding="UTF-8"?>
<svg width="120px" height="22px" viewBox="0 0 120 22" version="1.1" xmlns="http://www.w3.org/2000/svg" xmlns:xlink="http://www.w3.org/1999/xlink">
    <!-- Generator: Sketch 61.1 (89650) - https://sketch.com -->
    <title>matter</title>
    <desc>Created with Sketch.</desc>
    <g id="Symbols" stroke="none" stroke-width="1" fill="none" fill-rule="evenodd">
        <g id="Nav/01-Global/Default" transform="translate(-150.000000, -28.000000)" fill="#030303">
            <g id="Global-Nav">
                <g id="Logo" transform="translate(73.000000, 0.000000)">
                    <path d="M98.1290354,32.8966062 C95.7455225,32.8966062 93.0931924,33.7995264 91.731185,36.3520126 C90.6379949,34.198895 88.3261666,32.8966062 85.3691769,32.8966062 C83.2903235,32.8966062 81.0322587,33.6085241 79.6523301,35.5706393 L79.6523301,33.2265193 L77,33.2265193 L77,49.6700868 L79.6881724,49.6700868 L79.6881724,40.3977901 C79.6881724,37.2722968 82.035843,35.3622731 84.8853058,35.3622731 C87.9856647,35.3622731 89.7777797,37.2028414 89.7777797,40.3283346 L89.7777797,49.6700868 L92.448031,49.6700868 L92.448031,40.3977901 C92.448031,37.2722968 94.7957016,35.3622731 97.6451644,35.3622731 C100.763444,35.3622731 102.555559,37.2028414 102.555559,40.3283346 L102.555559,49.6700868 L105.225811,49.6700868 L105.225811,39.4775059 C105.225811,35.5011839 102.340506,32.8966062 98.1290354,32.8966062 Z M127.358425,33.2265193 L127.358425,49.6700868 L124.688174,49.6700868 L124.688174,47.2217837 C123.344087,48.9060773 121.283155,50 118.487456,50 C113.72043,50 110.010752,46.3883189 110.010752,41.4396212 C110.010752,36.5082873 113.72043,32.8966062 118.487456,32.8966062 C121.283155,32.8966062 123.344087,34.0078927 124.688174,35.6748224 L124.688174,33.2265193 L127.358425,33.2265193 Z M118.810036,35.3275454 C115.172043,35.3275454 112.734767,38.0536701 112.734767,41.4396212 C112.734767,44.8429361 115.207885,47.5690608 118.810036,47.5690608 C122.340503,47.5690608 124.849464,44.9297553 124.849464,41.4396212 C124.849464,37.9668508 122.340503,35.3275454 118.810036,35.3275454 Z M145.154123,33.2265193 L137.824373,33.2265193 L137.824373,28 L135.154121,28 L135.154121,33.2265193 L131.444443,33.2265193 L131.444443,35.5706393 L135.154121,35.5706393 L135.154121,43.9226519 C135.154121,48.0552486 137.32258,50 140.978495,50 C143.057348,50 144.741936,49.3054459 146.014338,48.3677979 L144.759857,46.4056827 C143.774194,47.1002368 142.501793,47.5690608 141.193549,47.5690608 C139.222222,47.5690608 137.824373,46.4404104 137.824373,43.8705604 L137.824373,35.5706393 L145.154123,35.5706393 L145.154123,33.2265193 Z M161.390682,33.2265193 L154.060931,33.2265193 L154.060931,28 L151.39068,28 L151.39068,33.2265193 L147.681002,33.2265193 L147.681002,35.5706393 L151.39068,35.5706393 L151.39068,43.9226519 C151.39068,48.0552486 153.559139,50 157.215054,50 C159.293907,50 160.978495,49.3054459 162.250897,48.3677979 L160.996416,46.4056827 C160.010753,47.1002368 158.738352,47.5690608 157.430108,47.5690608 C155.458781,47.5690608 154.060931,46.4404104 154.060931,43.8705604 L154.060931,35.5706393 L161.390682,35.5706393 L161.390682,33.2265193 Z M173.236559,32.8966062 C177.842294,32.8966062 181.175628,36.3867403 181.21147,41.3875296 C181.21147,41.7174428 181.193549,42.0647198 181.157707,42.3599053 L167.555554,42.3599053 C167.931899,45.902131 170.494623,47.7253354 173.55914,47.7253354 C175.655914,47.7253354 177.483871,46.9439621 178.935484,45.6590371 L180.369176,47.43015 C178.254481,49.3922652 175.888889,50 173.397849,50 C168.379927,50 164.813619,46.5445935 164.813619,41.456985 C164.813619,36.421468 168.397848,32.8966062 173.236559,32.8966062 Z M173.182795,35.2059984 C170.046594,35.2059984 168.021504,37.2896606 167.591397,40.2588792 L178.487456,40.2588792 C178.146954,37.1854775 176.068101,35.2059984 173.182795,35.2059984 Z M193.88172,32.8966062 C191.802867,32.8966062 190.010752,33.851618 188.845877,35.5359116 L188.845877,33.2265193 L186.193547,33.2265193 L186.193547,49.6700868 L188.863798,49.6700868 L188.863798,40.4672455 C188.863798,37.359116 190.76344,35.3449092 193.41577,35.3449092 C194.401433,35.3449092 195.530466,35.5706393 196.354839,36.0047356 L197,33.4522494 C196.103943,33.0528808 195.100358,32.8966062 193.88172,32.8966062 Z" id="matter"></path>
                </g>
            </g>
        </g>
    </g>
</svg>